<svg xmlns="http://www.w3.org/2000/svg" viewBox="0 0 128 128" role="img" aria-label="ポピンズ返信アシスタント">
  <defs>
    <linearGradient id="bg" x1="18" y1="12" x2="112" y2="120" gradientUnits="userSpaceOnUse">
      <stop offset="0" stop-color="#1b8a92"/>
      <stop offset="1" stop-color="#0f5d65"/>
    </linearGradient>
    <filter id="shadow" x="-20%" y="-20%" width="140%" height="150%">
      <feDropShadow dx="0" dy="5" stdDeviation="5" flood-color="#07383d" flood-opacity=".28"/>
    </filter>
  </defs>

  <rect width="128" height="128" rx="28" fill="url(#bg)"/>
  <path d="M21 94c13 10 31 15 49 12 23-4 40-19 45-38" fill="none" stroke="#8fd5cf" stroke-width="8" stroke-linecap="round" opacity=".38"/>

  <g filter="url(#shadow)">
    <path d="M29 35c0-7 6-13 13-13h45c8 0 14 6 14 13v32c0 7-6 13-14 13H61L42 96c-3 2-7 0-7-4V79c-4-2-6-6-6-12V35Z" fill="#ffffff"/>
    <path d="M44 45h38M44 58h28" fill="none" stroke="#16707a" stroke-width="8" stroke-linecap="round"/>
  </g>

  <path d="M94 25l4 10 10 4-10 4-4 10-4-10-10-4 10-4 4-10Z" fill="#f5c84c"/>
  <path d="M104 76l2 6 6 2-6 2-2 6-2-6-6-2 6-2 2-6Z" fill="#f5c84c"/>
</svg>
